<svg width="97" height="63" viewBox="0 0 97 63" fill="none" xmlns="http://www.w3.org/2000/svg">
<g clip-path="url(#clip0_161_47)">
<path d="M76.6049 0V6.52499C76.6049 12.243 79.7498 17.4685 84.724 20.0122L90.8041 23.1226C93.6537 24.581 97 22.4452 97 19.1689V0H76.6049Z" fill="white"/>
<path d="M20.3952 34.9111V21.0852C20.3952 9.44015 11.2641 0 0 0V58.5227C0 60.9955 1.94 63.0017 4.33144 63.0017H16.6561C19.103 63.0017 21.5045 62.3192 23.6089 61.0283L45.2023 47.7693C47.2346 46.5216 49.7654 46.5216 51.7977 47.7693L76.6048 63.0017V47.3459C76.6048 41.6037 73.4599 36.3574 68.4857 33.8034L51.3731 25.013C49.564 24.0834 47.436 24.0834 45.6269 25.013L23.0467 36.6115C21.8267 37.2387 20.3952 36.3212 20.3952 34.9128V34.9111Z" fill="white"/>
</g>
<defs>
<clipPath id="clip0_161_47">
<rect width="97" height="63" fill="white"/>
</clipPath>
</defs>
</svg>
