<?xml version="1.0" encoding="UTF-8"?><svg id="Camada_2" xmlns="http://www.w3.org/2000/svg" viewBox="0 0 148.34 148.89"><defs><style>.cls-1{fill:#fff;}</style></defs><g id="Camada_1-2"><g><path class="cls-1" d="M74.66,12.15c16.44,0,31.89,6.4,43.51,18.02,11.62,11.62,18.02,27.08,18.02,43.51s-6.4,31.89-18.02,43.51c-11.62,11.62-27.08,18.02-43.51,18.02-10.25,0-20.38-2.56-29.32-7.42l-4.23-2.3-4.66,1.23-19.15,5.04,5.05-18.37,1.34-4.86-2.5-4.38c-5.27-9.23-8.06-19.77-8.06-30.47,0-16.44,6.4-31.89,18.02-43.51,11.62-11.62,27.08-18.02,43.51-18.02m0-12.15C33.96,0,.97,32.99,.97,73.69c0,13.28,3.51,25.74,9.66,36.5L0,148.89l39.54-10.41c10.44,5.67,22.4,8.89,35.12,8.89,40.7,0,73.69-32.99,73.69-73.69S115.35,0,74.66,0h0Z"/><path class="cls-1" d="M51.44,39.73s2.77-.26,3.96,2.06,6.36,15.29,6.36,15.29c0,0,.97,1.57-.49,3.85s-4.9,6.09-4.9,6.09c0,0-.93,1.05-.19,2.43s4.9,8.73,11.46,14c3.86,3.1,5.66,5.05,14.8,8.75,0,0,1.36,.59,2.36-.29s6.56-7.91,6.56-7.91c0,0,.67-1.94,3.33-1.08s15.74,7.48,15.74,7.48c0,0,1.46,.67,1.31,2.28s.41,8.11-5.01,12.08-11.1,5.87-20.15,3.25-21.91-7.44-33.01-19.78c-11.1-12.34-14.77-19.93-16.41-26.66s.48-14.32,5.68-18.84c2.85-2.48,3.33-2.9,5.2-3s3.4,0,3.4,0Z"/></g></g></svg>